PathFileType	4	(X/Y/Z)	9_coords_data.trc
DataRate	CameraRate	NumFrames	NumMarkers	Units	OrigDataRate	OrigDataStartFrame	OrigNumFrames
30.0	30.0	7	21	m	30.0	29	47
Frame#	Time	THUMB_TIP	THUMB_IP	THUMB_MCP	THUMB_CMC	INDEX_TIP	INDEX_DIP	INDEX_PIP	INDEX_MCP	MIDDLE_TIP	MIDDLE_DIP	MIDDLE_PIP	MIDDLE_MCP	RING_TIP	RING_DIP	RING_PIP	RING_MCP	PINKY_TIP	PINKY_DIP	PINKY_PIP	PINKY_MCP	WRIST
X1	Y1	Z1	X2	Y2	Z2	X3	Y3	Z3	X4	Y4	Z4	X5	Y5	Z5	X6	Y6	Z6	X7	Y7	Z7	X8	Y8	Z8	X9	Y9	Z9	X10	Y10	Z10	X11	Y11	Z11	X12	Y12	Z12	X13	Y13	Z13	X14	Y14	Z14	X15	Y15	Z15	X16	Y16	Z16	X17	Y17	Z17	X18	Y18	Z18	X19	Y19	Z19	X20	Y20	Z20	X21	Y21	Z21
28	0.9333333333333333	0.017879999160766602	-0.017412900924682617	1.0287099609375	-0.0008516209721565241	-0.01604640007019043	1.048780029296875	-0.02213360023498535	-0.01867340087890625	1.0711500244140626	-0.044917098999023436	-0.004544789791107178	1.0908800048828124	0.02409989929199219	0.02606209945678711	1.001969970703125	0.0051381301879882815	0.015441900253295898	1.0010399780273438	-0.015584400177001953	0.004366509914398194	1.00277001953125	-0.041597198486328125	-0.011092300415039063	1.03043994140625	0.026813600540161135	0.05002180099487305	1.0095	0.005807919979095459	0.04126679992675781	1.0059099731445313	-0.02238960075378418	0.02991259956359863	1.0040999755859374	-0.05347579956054688	0.010345800399780274	1.0276700439453126	0.014605999946594238	0.06119200134277344	1.0298199462890625	-0.005832359790802002	0.05771929931640625	1.0230800170898438	-0.03385290145874023	0.04983789825439453	1.017280029296875	-0.06251729965209961	0.030502700805664064	1.0365999755859374	-0.01494849967956543	0.0621953010559082	1.051489990234375	-0.029428899765014647	0.06676619720458984	1.04331005859375	-0.049192100524902346	0.06446050262451172	1.0399300537109375	-0.06925789642333985	0.04762969970703125	1.053949951171875	-0.0810115966796875	-0.0013898199796676632	1.110280029296875
29	0.9666666666666667	0.017881799697875976	-0.014177800178527832	1.0295	-0.001079259991645813	-0.01360420036315918	1.0493900146484374	-0.022492599487304688	-0.01680030059814453	1.0718199462890625	-0.044837100982666016	-0.002337759971618652	1.0911700439453125	0.022129899978637697	0.027951799392700195	0.9963480224609375	0.003229079961776733	0.01703860092163086	0.9979459838867187	-0.017098100662231445	0.005879630088806152	1.0020700073242188	-0.04196799850463867	-0.009130180358886719	1.031050048828125	0.024035699844360353	0.05418109893798828	0.9999949951171875	0.003078819990158081	0.044110599517822265	1.0007999877929687	-0.024653699874877928	0.03162249946594238	1.0028400268554687	-0.0539635009765625	0.01212030029296875	1.028280029296875	0.012752400398254395	0.06671430206298828	1.0206300048828125	-0.008828359603881836	0.06136989974975586	1.0176699829101563	-0.03644369888305664	0.051603599548339846	1.015989990234375	-0.06340900039672852	0.03204679870605469	1.037510009765625	-0.01564780044555664	0.06768180084228516	1.0468800048828124	-0.03128960037231445	0.07012010192871093	1.0409200439453126	-0.051073200225830076	0.06617079925537109	1.0395799560546874	-0.06959310150146485	0.04925849914550781	1.0543499755859376	-0.0815177993774414	-0.000198127001523971	1.1110799560546876
30	1.0	0.017557899475097657	-0.011160099983215332	1.030010009765625	-0.001519749999046325	-0.011458800315856934	1.05006005859375	-0.022772300720214845	-0.014883299827575684	1.0724599609375	-0.044996299743652345	-0.0006415269970893861	1.0909599609375	0.020383800506591797	0.029540300369262695	0.9927529907226562	0.001757200002670288	0.018510400772094728	0.996197998046875	-0.018306299209594725	0.007396269798278809	1.0016900024414062	-0.04253030014038086	-0.007386730194091797	1.0314100341796875	0.021410900115966795	0.0571067008972168	0.9945430297851563	0.000781588017940521	0.04629880142211914	0.9976909790039062	-0.026306999206542968	0.03324660110473633	1.0021199951171875	-0.05456340026855469	0.013765299797058105	1.0287099609375	0.010559800148010254	0.07056649780273437	1.0149600219726562	-0.011227899551391602	0.06393099975585938	1.0141400146484374	-0.03838059997558594	0.053241600036621095	1.0151900024414062	-0.06414140319824219	0.03363690185546875	1.037780029296875	-0.017079700469970704	0.07177349853515624	1.0434300537109376	-0.033560901641845706	0.07269519805908203	1.0390699462890625	-0.05303519821166992	0.06778910064697266	1.039280029296875	-0.0703655014038086	0.05074689865112305	1.0545400390625	-0.0821416015625	0.0011636899709701529	1.11168994140625
31	1.0333333333333334	0.016996000289916994	-0.008405349731445312	1.030280029296875	-0.0020544099807739257	-0.009505999565124513	1.0503599853515626	-0.023295099258422852	-0.013316100120544433	1.072550048828125	-0.045256999969482424	0.0010326999425888058	1.090969970703125	0.018225900650024413	0.03098699951171875	0.9898140258789062	-0.000124796003103256	0.019960100173950196	0.9944710083007813	-0.01983919906616211	0.008853409767150879	1.0011500244140625	-0.04299390029907227	-0.005704800128936768	1.0315899658203125	0.01802790069580078	0.05946709823608398	0.9894639892578125	-0.0019593299627304072	0.04825009918212891	0.9946320190429687	-0.028443500518798827	0.0349276008605957	1.0013300170898438	-0.05543040084838867	0.015337599754333495	1.0291700439453124	0.007824709892272949	0.07381590270996094	1.008489990234375	-0.013963199615478516	0.0660802001953125	1.0106099853515624	-0.04036470031738281	0.054611598968505856	1.0143599853515626	-0.06494200134277343	0.03505680084228516	1.03831005859375	-0.017562700271606446	0.07547609710693359	1.040489990234375	-0.03483420181274414	0.07497709655761718	1.03777001953125	-0.05401179885864258	0.06917990112304688	1.0393299560546876	-0.07048690032958985	0.051990699768066403	1.0556300048828124	-0.08230860137939452	0.002362349987030029	1.1119000244140624
32	1.0666666666666667	0.016400800704956055	-0.006152810096740723	1.0303900146484375	-0.0025633900165557863	-0.007899109840393066	1.0506800537109375	-0.023709999084472657	-0.012000800132751465	1.07275	-0.04563249969482422	0.001591439962387085	1.0911700439453125	0.0161968994140625	0.03228979873657226	0.9881129760742188	-0.001964460015296936	0.02120949935913086	0.993343994140625	-0.021431100845336913	0.010083100318908692	1.0006199951171875	-0.04365079879760742	-0.0041908698081970204	1.0318800048828125	0.014864999771118164	0.06143090057373047	0.9860260009765625	-0.004602580070495605	0.049980098724365235	0.9925159912109375	-0.030454200744628908	0.03628319931030274	1.00075	-0.05631290054321289	0.016596900939941407	1.0296500244140625	0.0053393301963806155	0.07629660034179687	1.0055	-0.01600160026550293	0.06798780059814453	1.0091500244140625	-0.04211380004882812	0.056011600494384764	1.0141900024414063	-0.06581230163574218	0.036265800476074216	1.038719970703125	-0.01937770080566406	0.0780416030883789	1.0385400390625	-0.036588401794433595	0.07685240173339844	1.0368199462890626	-0.05549639892578125	0.07058409881591797	1.0394300537109376	-0.07144999694824218	0.05334809875488281	1.056199951171875	-0.08246240234375	0.0033522000312805173	1.111719970703125
33	1.1	0.015498600006103515	-0.005906559944152832	1.02981005859375	-0.003271039962768554	-0.007233099937438965	1.05043994140625	-0.02433740043640137	-0.01109220027923584	1.072530029296875	-0.04616139984130859	0.002958549976348877	1.0915999755859376	0.014196499824523926	0.03315679931640625	0.9872009887695312	-0.0039088399410247806	0.02200860023498535	0.9924849853515625	-0.023205900192260744	0.01089430046081543	0.9999169921875	-0.04431280136108398	-0.003170890092849731	1.0319200439453124	0.013567899703979492	0.062479801177978515	0.9857039794921875	-0.005909110069274902	0.05105229949951172	0.9922139892578125	-0.03174309921264649	0.03742110061645508	1.0004500122070312	-0.0569114990234375	0.017611299514770508	1.02981005859375	0.004879250049591065	0.07738849639892578	1.00602001953125	-0.01661910057067871	0.06911139678955078	1.0095999755859375	-0.04258649826049805	0.057263500213623045	1.0145399780273439	-0.06621240234375	0.03728969955444336	1.038969970703125	-0.02004710006713867	0.07910970306396484	1.0385799560546876	-0.037354598999023436	0.0779894027709961	1.037	-0.05616139984130859	0.07168930053710937	1.03975	-0.07176090240478515	0.054443599700927735	1.05643994140625	-0.08288390350341797	0.0043297200202941895	1.1120699462890624
34	1.1333333333333333	0.01343910026550293	-0.008590689659118652	1.02797998046875	-0.0046945600509643555	-0.008208339691162109	1.04881005859375	-0.02514550018310547	-0.011302499771118165	1.0713800048828126	-0.04673210144042969	0.002415169954299926	1.0916099853515624	0.013121299743652344	0.03349409866333008	0.9870809936523437	-0.0050536999702453615	0.02250429916381836	0.9923280029296875	-0.024348800659179687	0.011453800201416016	0.9997030029296875	-0.04495869827270508	-0.002470510005950927	1.0319000244140626	0.013284799575805663	0.0627317008972168	0.9863820190429687	-0.0063585200309753415	0.05151020050048828	0.9925830078125	-0.03236389923095703	0.038178001403808594	1.0005	-0.0573568000793457	0.01840239906311035	1.03	0.005461450099945068	0.07771250152587891	1.0077899780273438	-0.01618280029296875	0.06984989929199219	1.0107899780273437	-0.04242350006103516	0.058339000701904294	1.0153699951171875	-0.06647669982910157	0.03820550155639649	1.03931005859375	-0.01947249984741211	0.07945339965820312	1.0393800048828126	-0.03680039978027344	0.07852359771728516	1.0378800048828125	-0.055729801177978516	0.07250260162353515	1.0404000244140625	-0.07168730163574219	0.055297798156738284	1.0567900390625	-0.08278299713134765	0.004914440155029297	1.1122099609375
